<svg viewBox="237 609 1023.0000000000001 282" xmlns:xlink="http://www.w3.org/1999/xlink" version="1.1" xmlns="http://www.w3.org/2000/svg" style="max-height: 500px" width="1023.0000000000001" height="282"><rect fill="none" height="1500" width="1500"/><g transform="matrix(0.6666666666666666,0,0,0.6666666666666666,249.39393939393938,624.1061843973631)"><svg xmlns:xlink="http://www.w3.org/1999/xlink" xmlns="http://www.w3.org/2000/svg" width="1500" height="375" preserveAspectRatio="xMidYMid meet" data-background-color="none" viewBox="0 0 396 99"><g transform="matrix(1,0,0,1,0.2400000000000091,0.35395097864420677)" id="tight-bounds"><svg width="395.52" height="98.2920980427116" viewBox="0 0 395.52 98.2920980427116"><g><svg width="395.52" height="98.2920980427116" viewBox="0 0 562.5740866614175 139.80731007891632"><g transform="matrix(1,0,0,1,167.0540866614175,41.049836160684805)"><svg width="395.52" height="57.70763775754671" viewBox="0 0 395.52 57.70763775754671"><g id="textblocktransform"><svg id="textblock" width="395.52" height="57.70763775754671" viewBox="0 0 395.52 57.70763775754671"><g><svg width="395.52" height="57.70763775754671" viewBox="0 0 395.52 57.70763775754671"><g transform="matrix(1,0,0,1,0,0)"><svg data-palette-color="#8692f0" height="57.70763775754671" viewBox="0.63 -29.3 202.06 29.740000000000002" width="395.52"><g id="text-0" data-fill-palette-color="primary" class="wordmark-text-0"><path data-fill-palette-color="primary" fill="#8692f0" d="M6.3 0.44L6.3 0.44Q5 0.44 3.31-0.04 1.61-0.51 0.63-1.64L0.63-1.64 1.46-5.03Q2.39-3.98 3.67-3.41 4.96-2.83 6.23-2.83L6.23-2.83Q8.25-2.83 9.52-4.28 10.79-5.74 10.79-8.86L10.79-8.86 10.79-17.94Q10.79-20.63 10.75-22.95 10.72-25.27 10.52-26.73L10.52-26.73 14.28-26.73Q14.28-26.56 14.28-25.32 14.28-24.07 14.28-22.16 14.28-20.24 14.28-18.02 14.28-15.8 14.28-13.64 14.28-11.47 14.28-9.79L14.28-9.79Q14.28-5.98 13.27-3.74 12.26-1.49 10.46-0.52 8.67 0.44 6.3 0.44ZM27.9 0.44L27.9 0.44Q24.14 0.44 21.76-2.04 19.38-4.52 19.38-9.23L19.38-9.23Q19.38-12.38 20.6-14.58 21.82-16.77 23.84-17.91 25.85-19.04 28.27-19.04L28.27-19.04Q32.05-19.04 34.41-16.5 36.77-13.96 36.77-9.23L36.77-9.23Q36.77-6.08 35.56-3.93 34.35-1.78 32.33-0.67 30.32 0.44 27.9 0.44ZM28.07-2.47L28.07-2.47Q30.3-2.47 31.85-4.26 33.4-6.05 33.4-9.23L33.4-9.23Q33.4-12.45 31.92-14.28 30.44-16.11 28.07-16.11L28.07-16.11Q25.85-16.11 24.31-14.28 22.78-12.45 22.78-9.23L22.78-9.23Q22.78-6.05 24.24-4.26 25.71-2.47 28.07-2.47ZM49.04 0.44L49.04 0.44Q46.82 0.44 44.87-0.1 42.91-0.63 41.16-1.17L41.16-1.17Q41.16-2.08 41.16-3.99 41.16-5.91 41.16-8.31 41.16-10.72 41.16-13.16 41.16-15.6 41.16-17.61 41.16-19.63 41.16-20.68L41.16-20.68Q41.16-22 41.14-23.61 41.13-25.22 41.08-26.75 41.04-28.27 40.89-29.3L40.89-29.3 44.55-29.3Q44.55-29.3 44.55-28.02 44.55-26.73 44.55-24.79 44.55-22.85 44.55-20.8 44.55-18.75 44.55-17.18 44.55-15.6 44.55-15.09L44.55-15.09Q45.84-16.77 47.58-17.91 49.31-19.04 51.61-19.04L51.61-19.04Q53.46-19.04 54.88-17.87 56.29-16.7 57.11-14.64 57.93-12.57 57.93-9.89L57.93-9.89Q57.93-5.18 55.51-2.37 53.1 0.44 49.04 0.44ZM49.04-2.37L49.04-2.37Q51.48-2.37 53.06-4.26 54.63-6.15 54.63-9.23L54.63-9.23Q54.63-12.28 53.56-14.05 52.49-15.82 50.51-15.82L50.51-15.82Q48.8-15.82 47.14-14.4 45.48-12.99 44.55-10.69L44.55-10.69 44.55-3.37Q45.92-2.83 46.88-2.6 47.85-2.37 49.04-2.37Z"/><path data-fill-palette-color="secondary" fill="#ef86c1" d="M82.44 0L78.22 0Q78.46-1.1 78.52-3.17 78.58-5.25 78.58-7.96L78.58-7.96 78.58-23.71 74.28-23.71Q73.06-23.71 71.98-23.65 70.89-23.58 69.79-23.34L69.79-23.34 69.79-26.73 90.96-26.73 90.96-23.34Q89.86-23.58 88.77-23.65 87.69-23.71 86.47-23.71L86.47-23.71 82.07-23.71 82.07-7.96Q82.07-5.25 82.13-3.17 82.2-1.1 82.44 0L82.44 0ZM98.35 0L94.96 0 94.96-11.25Q94.96-13.94 94.66-15.83 94.35-17.72 94.03-18.68L94.03-18.68 97.33-18.68Q97.55-18.09 97.76-16.92 97.96-15.75 98.06-15.09L98.06-15.09Q99.4-17.02 101.09-18.03 102.77-19.04 104.02-19.04L104.02-19.04Q105.56-19.04 106.48-18.18 107.41-17.31 107.83-15.91 108.24-14.5 108.24-12.89L108.24-12.89 105.31-12.26Q105.31-13.62 104.8-14.69 104.29-15.75 103.19-15.75L103.19-15.75Q102.43-15.75 101.46-14.98 100.48-14.21 99.62-13.04 98.77-11.87 98.35-10.62L98.35-10.62 98.35 0ZM116.1 0.44L116.1 0.44Q113.51 0.44 111.83-1.1 110.14-2.64 110.14-4.66L110.14-4.66Q110.14-6.05 110.79-7.45 111.44-8.84 113.04-9.86 114.64-10.89 117.47-11.16L117.47-11.16Q118.1-11.23 119.13-11.33 120.15-11.43 121.09-11.51 122.03-11.6 122.4-11.62L122.4-11.62 122.4-12.99Q122.4-14.65 121.24-15.38 120.08-16.11 118.01-16.11L118.01-16.11Q116.57-16.11 115.11-15.53 113.66-14.94 112.07-13.82L112.07-13.82Q112.07-14.43 112.12-15.61 112.17-16.8 112.24-17.38L112.24-17.38Q113.66-17.99 115.21-18.52 116.76-19.04 118.84-19.04L118.84-19.04Q122.01-19.04 123.9-17.57 125.79-16.09 125.79-13.92L125.79-13.92 125.79-6.76Q125.79-4.79 126.17-3.16 126.55-1.54 127.16 0L127.16 0 123.86 0Q123.69-0.44 123.43-1.2 123.16-1.95 122.96-2.83L122.96-2.83Q121.33-1.1 119.57-0.33 117.81 0.44 116.1 0.44ZM116.64-2.56L116.64-2.56Q118.05-2.56 119.41-3.15 120.76-3.74 122.4-5.93L122.4-5.93 122.4-9.06Q121.96-9.03 121.05-8.95 120.13-8.86 119.18-8.76 118.23-8.67 117.64-8.59L117.64-8.59Q115.32-8.33 114.38-7.36 113.44-6.4 113.44-5.13L113.44-5.13Q113.44-3.91 114.29-3.23 115.15-2.56 116.64-2.56ZM139.54 0.44L139.54 0.44Q137.09 0.44 135.07-0.7 133.04-1.83 131.85-3.93 130.65-6.03 130.65-8.96L130.65-8.96Q130.65-11.74 131.81-14.03 132.97-16.31 135.12-17.68 137.27-19.04 140.17-19.04L140.17-19.04Q142-19.04 143.33-18.6 144.66-18.16 145.66-17.48L145.66-17.48 145.03-14.18Q143.78-15.09 142.55-15.55 141.32-16.02 139.9-16.02L139.9-16.02Q137.46-16.02 135.79-14.21 134.12-12.4 134.12-9.16L134.12-9.16Q134.12-6.2 135.68-4.38 137.24-2.56 139.9-2.56L139.9-2.56Q141.56-2.56 142.92-3.14 144.27-3.71 145.47-4.76L145.47-4.76 145.84-1.54Q144.47-0.49 143.03-0.02 141.59 0.44 139.54 0.44ZM166.17 0L161.68 0 153.16-10.06 155.09-12.08 166.17 0ZM153.62 0L150.23 0Q150.23 0 150.23-1.26 150.23-2.51 150.23-4.55 150.23-6.59 150.23-9 150.23-11.4 150.23-13.75 150.23-16.09 150.23-17.93 150.23-19.78 150.23-20.68L150.23-20.68Q150.23-23.63 150.19-25.87 150.15-28.1 149.96-29.3L149.96-29.3 153.62-29.3 153.62 0ZM165.61-18.68L155.57-9.59 152.72-10.06 161.04-18.68 165.61-18.68ZM177.06 0.44L177.06 0.44Q174.74 0.44 172.72-0.63 170.71-1.71 169.49-3.83 168.27-5.96 168.27-9.06L168.27-9.06Q168.27-13.6 170.63-16.32 173-19.04 177.06-19.04L177.06-19.04Q180.08-19.04 181.72-17.71 183.35-16.38 184-14.38 184.65-12.38 184.65-10.3L184.65-10.3Q184.65-10.06 184.65-9.59 184.65-9.13 184.62-8.86L184.62-8.86 171-8.86 171-11.43 181.35-11.43Q181.35-13.79 180.06-15.04 178.76-16.28 176.79-16.28L176.79-16.28Q174.37-16.28 173.02-14.58 171.66-12.87 171.66-9.23L171.66-9.23Q171.66-5.83 173.31-4.2 174.96-2.56 177.52-2.56L177.52-2.56Q179.28-2.56 180.99-2.97 182.7-3.37 184.38-4.39L184.38-4.39 184.75-1.37Q182.79-0.37 180.97 0.04 179.16 0.44 177.06 0.44ZM192.8 0L189.41 0 189.41-11.25Q189.41-13.94 189.1-15.83 188.8-17.72 188.48-18.68L188.48-18.68 191.77-18.68Q191.99-18.09 192.2-16.92 192.41-15.75 192.51-15.09L192.51-15.09Q193.85-17.02 195.53-18.03 197.22-19.04 198.46-19.04L198.46-19.04Q200-19.04 200.93-18.18 201.86-17.31 202.27-15.91 202.69-14.5 202.69-12.89L202.69-12.89 199.76-12.26Q199.76-13.62 199.25-14.69 198.73-15.75 197.63-15.75L197.63-15.75Q196.88-15.75 195.9-14.98 194.92-14.21 194.07-13.04 193.22-11.87 192.8-10.62L192.8-10.62 192.8 0Z"/></g></svg></g></svg></g></svg></g></svg></g><g><svg width="139.80731007891632" height="139.80731007891632" viewBox="0 0 139.80731007891632 139.80731007891632"><g><svg/></g><g id="icon-0"><svg width="139.80731007891632" height="139.80731007891632" viewBox="0 0 139.80731007891632 139.80731007891632"><g><path stroke="transparent" fill="#f96bca" data-fill-palette-color="accent" d="M0 69.904c0-38.607 31.297-69.904 69.904-69.904 38.607 0 69.904 31.297 69.903 69.904 0 38.607-31.297 69.904-69.903 69.903-38.607 0-69.904-31.297-69.904-69.903zM69.904 134.603c35.733 0 64.7-28.967 64.699-64.699 0-35.733-28.967-64.7-64.699-64.7-35.733 0-64.7 28.967-64.7 64.7 0 35.733 28.967 64.7 64.7 64.699z"/></g><g transform="matrix(1,0,0,1,29.495620178128263,33.915007628850745)"><svg width="80.81606972265979" height="71.97729482121483" viewBox="0 0 80.81606972265979 71.97729482121483"><g><svg id="dxe-0" data-fill-palette-color="accent" class="icon-dxe-0" width="80.81606972265979" height="71.97729482121483" xml:space="preserve" viewBox="3.6009947047444157 8.677 92.79600922706547 82.64699999999999" y="0" x="0" version="1.1" xmlns:xlink="http://www.w3.org/1999/xlink" xmlns="http://www.w3.org/2000/svg"><g data-fill-palette-color="accent" fill="#f96bca"><path data-fill-palette-color="accent" fill="#f96bca" d="M96.349 27.217A4.98 4.98 0 0 0 91.373 22.241H65.445V15.549A6.88 6.88 0 0 0 58.573 8.677H41.427A6.88 6.88 0 0 0 34.555 15.549V22.241H8.629A4.98 4.98 0 0 0 3.651 27.212L3.601 50.882A2 2 0 0 0 4.728 52.686 78 78 0 0 0 7.963 54.14V86.348A4.98 4.98 0 0 0 12.939 91.324H87.059A4.98 4.98 0 0 0 92.035 86.348V53.658A70 70 0 0 0 95.33 52.04 2 2 0 0 0 96.397 50.267zM38.555 15.549A2.875 2.875 0 0 1 41.427 12.677H58.573C60.13 12.677 61.445 13.992 61.445 15.549V22.241H38.555zM88.036 86.348C88.036 86.868 87.58 87.324 87.06 87.324H12.94A0.99 0.99 0 0 1 11.964 86.348V55.727C20.67 58.924 30.397 60.842 41.004 61.43V64.205A3.653 3.653 0 0 0 44.653 67.854H55.348A3.653 3.653 0 0 0 58.995 64.205V61.4C69.74 60.747 79.469 58.721 88.035 55.361V86.348zM45.004 63.854V57.218H54.996V63.854zM58.996 57.378V56.87A3.653 3.653 0 0 0 55.349 53.219H44.653A3.654 3.654 0 0 0 41.004 56.87V57.421C28.476 56.703 17.245 54.092 7.605 49.622L7.652 27.217A0.99 0.99 0 0 1 8.63 26.241H91.374A0.99 0.99 0 0 1 92.35 27.22L92.396 49.051C82.987 53.791 71.754 56.576 58.996 57.378"/></g></svg></g></svg></g></svg></g></svg></g></svg></g><defs/></svg><rect visibility="hidden" stroke="none" fill="none" height="98.2920980427116" width="395.52"/></g></svg></g></svg>